<?xml version="1.0" encoding="UTF-8"?>
<svg version="1.1" xmlns="http://www.w3.org/2000/svg" width="500" height="500">
<path d="M0 0 C165 0 330 0 500 0 C500 165 500 330 500 500 C335 500 170 500 0 500 C0 335 0 170 0 0 Z " fill="#FEFEFE" transform="translate(0,0)"/>
<path d="M0 0 C2.32359204 0.01067092 4.6464029 0.0000864 6.9699707 -0.01269531 C18.48217254 -0.02514492 29.3835606 0.8727981 40.27661133 4.88574219 C40.98841553 5.14444092 41.70021973 5.40313965 42.43359375 5.66967773 C72.47642995 16.92290461 95.93422622 38.44195873 110.02661133 67.26074219 C116.95617356 83.26060056 119.20523142 98.30217123 119.21411133 115.63574219 C119.22635742 116.88613281 119.23860352 118.13652344 119.2512207 119.42480469 C119.29261903 145.80934116 108.94596053 170.4374003 92.24145508 190.58886719 C90.8306665 192.18596217 90.8306665 192.18596217 91.02661133 194.26074219 C93.62956409 195.57569761 96.23389166 196.88779205 98.83911133 198.19824219 C99.57709961 198.57142578 100.31508789 198.94460938 101.07543945 199.32910156 C101.78764648 199.68681641 102.49985352 200.04453125 103.23364258 200.41308594 C103.88824463 200.74300537 104.54284668 201.0729248 105.21728516 201.4128418 C109.22427947 203.29063039 112.83514311 203.54202405 117.21411133 203.82324219 C118.48641602 203.90703125 119.7587207 203.99082031 121.06958008 204.07714844 C122.04540039 204.13773438 123.0212207 204.19832031 124.02661133 204.26074219 C124.02661133 204.92074219 124.02661133 205.58074219 124.02661133 206.26074219 C112.88587945 209.97431948 99.95340068 209.44393547 89.02661133 205.26074219 C88.36918945 204.85855469 87.71176758 204.45636719 87.03442383 204.04199219 C84.81475038 202.75255533 83.61076618 202.19115094 81.02661133 202.26074219 C78.39598455 203.90439821 76.07581207 205.75994501 73.71411133 207.76611328 C61.96446399 217.578389 46.81649495 224.46888523 32.02661133 228.26074219 C31.36121338 228.44113037 30.69581543 228.62151855 30.01025391 228.80737305 C21.49422615 230.84347869 12.79339274 230.70159686 4.08911133 230.69824219 C3.26335602 230.69897736 2.43760071 230.69971252 1.58682251 230.70046997 C-10.90461105 230.67120537 -22.2546053 229.92903487 -33.97338867 225.26074219 C-34.66045898 225.00373535 -35.3475293 224.74672852 -36.05541992 224.48193359 C-64.64810308 213.68010594 -88.19388962 192.05739597 -101.15307617 164.42089844 C-108.44882261 148.14666447 -111.4177535 133.13525423 -111.41088867 115.32324219 C-111.41162384 114.49748688 -111.41235901 113.67173157 -111.41311646 112.82095337 C-111.38385186 100.32951981 -110.64168135 88.97952556 -105.97338867 77.26074219 C-105.58787842 76.23013672 -105.58787842 76.23013672 -105.19458008 75.17871094 C-94.2455166 46.19629123 -71.99786869 22.37865743 -44.03295898 9.16015625 C-37.5496216 6.32888374 -30.77668997 4.17791516 -23.97338867 2.26074219 C-23.01734741 1.96490234 -23.01734741 1.96490234 -22.04199219 1.66308594 C-14.83340525 -0.29696856 -7.41022146 -0.04042929 0 0 Z " fill="#FDFDFD" transform="translate(245.973388671875,134.7392578125)"/>
<path d="M0 0 C2.32359204 0.01067092 4.6464029 0.0000864 6.9699707 -0.01269531 C18.48217254 -0.02514492 29.3835606 0.8727981 40.27661133 4.88574219 C40.98841553 5.14444092 41.70021973 5.40313965 42.43359375 5.66967773 C72.47642995 16.92290461 95.93422622 38.44195873 110.02661133 67.26074219 C116.95617356 83.26060056 119.20523142 98.30217123 119.21411133 115.63574219 C119.22635742 116.88613281 119.23860352 118.13652344 119.2512207 119.42480469 C119.29261903 145.80934116 108.94596053 170.4374003 92.24145508 190.58886719 C90.8306665 192.18596217 90.8306665 192.18596217 91.02661133 194.26074219 C93.62956409 195.57569761 96.23389166 196.88779205 98.83911133 198.19824219 C99.57709961 198.57142578 100.31508789 198.94460938 101.07543945 199.32910156 C101.78764648 199.68681641 102.49985352 200.04453125 103.23364258 200.41308594 C103.88824463 200.74300537 104.54284668 201.0729248 105.21728516 201.4128418 C109.22427947 203.29063039 112.83514311 203.54202405 117.21411133 203.82324219 C118.48641602 203.90703125 119.7587207 203.99082031 121.06958008 204.07714844 C122.04540039 204.13773438 123.0212207 204.19832031 124.02661133 204.26074219 C124.02661133 204.92074219 124.02661133 205.58074219 124.02661133 206.26074219 C112.88587945 209.97431948 99.95340068 209.44393547 89.02661133 205.26074219 C88.36918945 204.85855469 87.71176758 204.45636719 87.03442383 204.04199219 C84.81475038 202.75255533 83.61076618 202.19115094 81.02661133 202.26074219 C78.39598455 203.90439821 76.07581207 205.75994501 73.71411133 207.76611328 C61.96446399 217.578389 46.81649495 224.46888523 32.02661133 228.26074219 C31.36121338 228.44113037 30.69581543 228.62151855 30.01025391 228.80737305 C21.49422615 230.84347869 12.79339274 230.70159686 4.08911133 230.69824219 C3.26335602 230.69897736 2.43760071 230.69971252 1.58682251 230.70046997 C-10.90461105 230.67120537 -22.2546053 229.92903487 -33.97338867 225.26074219 C-34.66045898 225.00373535 -35.3475293 224.74672852 -36.05541992 224.48193359 C-64.64810308 213.68010594 -88.19388962 192.05739597 -101.15307617 164.42089844 C-108.44882261 148.14666447 -111.4177535 133.13525423 -111.41088867 115.32324219 C-111.41162384 114.49748688 -111.41235901 113.67173157 -111.41311646 112.82095337 C-111.38385186 100.32951981 -110.64168135 88.97952556 -105.97338867 77.26074219 C-105.58787842 76.23013672 -105.58787842 76.23013672 -105.19458008 75.17871094 C-94.2455166 46.19629123 -71.99786869 22.37865743 -44.03295898 9.16015625 C-37.5496216 6.32888374 -30.77668997 4.17791516 -23.97338867 2.26074219 C-23.01734741 1.96490234 -23.01734741 1.96490234 -22.04199219 1.66308594 C-14.83340525 -0.29696856 -7.41022146 -0.04042929 0 0 Z M-72.97338867 38.26074219 C-73.72233398 38.96070313 -74.4712793 39.66066406 -75.24291992 40.38183594 C-93.66959043 57.89245781 -104.20597982 84.54978529 -105.26245117 109.67871094 C-105.97458899 139.57550418 -96.22979658 167.87963965 -75.64135742 189.87011719 C-69.27860724 196.48898026 -62.84718842 202.46206423 -54.97338867 207.26074219 C-53.57540039 208.14826172 -53.57540039 208.14826172 -52.14916992 209.05371094 C-37.81073246 217.84420397 -20.87156522 223.7163714 -3.97338867 224.26074219 C-2.79647461 224.31230469 -1.61956055 224.36386719 -0.40698242 224.41699219 C26.82449655 225.0660046 54.54895868 216.72584912 75.02661133 198.26074219 C71.99142199 195.17543046 68.89581263 192.21101255 65.67553711 189.31640625 C55.68867601 180.31009568 46.56442721 170.46924217 37.79614258 160.28027344 C35.41776713 157.56588026 32.97152228 154.91501832 30.52661133 152.26074219 C26.92640677 148.35099864 23.38243351 144.40207547 19.90161133 140.38574219 C17.48110925 137.6425065 15.00453418 134.95196303 12.52661133 132.26074219 C7.65250612 126.96480773 2.83711867 121.62483431 -1.77807617 116.10058594 C-6.19739297 110.86887621 -6.19739297 110.86887621 -11.97338867 107.26074219 C-12.63338867 107.26074219 -13.29338867 107.26074219 -13.97338867 107.26074219 C-13.97338867 106.60074219 -13.97338867 105.94074219 -13.97338867 105.26074219 C-12.88541992 105.30714844 -11.79745117 105.35355469 -10.67651367 105.40136719 C0.43462365 105.73491691 10.41794797 105.25989401 19.52661133 98.07324219 C25.28923252 92.52627002 28.10312671 84.76221071 28.31933594 76.86621094 C28.42297236 65.83213024 26.54851324 57.50415235 19.19848633 48.91699219 C11.61199732 43.13161208 3.12767102 43.89942175 -5.97338867 44.07324219 C-7.33405093 44.08831743 -8.69472936 44.10200081 -10.05541992 44.11425781 C-13.3618271 44.14943236 -16.66739551 44.1986593 -19.97338867 44.26074219 C-20.06689177 59.54233778 -20.13739713 74.82392016 -20.18063736 90.10573769 C-20.20124959 97.20161129 -20.22934426 104.297307 -20.27514648 111.39306641 C-20.31932185 118.24006207 -20.34252252 125.08687273 -20.35289764 131.93400192 C-20.36029203 134.54711187 -20.37473136 137.16021163 -20.3963089 139.77324295 C-20.42531844 143.43157109 -20.42934552 147.08913406 -20.42749023 150.74755859 C-20.44187134 151.82937408 -20.45625244 152.91118958 -20.47106934 154.02578735 C-20.43062941 161.38851972 -19.30786638 164.81128249 -14.16088867 170.13574219 C-11.06328287 171.7287966 -8.39686041 171.45825017 -4.97338867 171.26074219 C-4.97338867 171.92074219 -4.97338867 172.58074219 -4.97338867 173.26074219 C-18.83338867 173.26074219 -32.69338867 173.26074219 -46.97338867 173.26074219 C-46.97338867 172.60074219 -46.97338867 171.94074219 -46.97338867 171.26074219 C-45.75651367 171.19886719 -44.53963867 171.13699219 -43.28588867 171.07324219 C-38.79955403 170.53233659 -36.82574126 168.8045742 -33.97338867 165.26074219 C-32.77166505 162.85729495 -32.83717723 161.34166572 -32.81948853 158.65679932 C-32.81088806 157.68667908 -32.8022876 156.71655884 -32.79342651 155.71704102 C-32.78916656 154.64897217 -32.78490662 153.58090332 -32.78051758 152.48046875 C-32.77234009 151.35840027 -32.7641626 150.23633179 -32.7557373 149.08026123 C-32.7308534 145.35396871 -32.71435968 141.62771435 -32.69995117 137.90136719 C-32.69196566 135.99568592 -32.69196566 135.99568592 -32.68381882 134.05150604 C-32.66258285 128.71227177 -32.64345328 123.37305089 -32.63219643 118.03378677 C-32.61596488 110.38549227 -32.58280885 102.73770642 -32.52579558 95.08960366 C-32.48239336 89.06146111 -32.46644805 83.03354974 -32.46006393 77.00524139 C-32.45333881 74.44236379 -32.43808434 71.87949394 -32.41417313 69.31671906 C-32.38262001 65.73028263 -32.38247087 62.14513205 -32.38989258 58.55859375 C-32.37348724 57.49862183 -32.35708191 56.4386499 -32.34017944 55.34655762 C-32.39021014 49.01943633 -32.39021014 49.01943633 -35.35629272 43.60491943 C-38.08927481 41.15694101 -39.18931764 40.49310252 -42.78588867 40.38574219 C-43.57608398 40.34707031 -44.3662793 40.30839844 -45.18041992 40.26855469 C-45.77209961 40.26597656 -46.3637793 40.26339844 -46.97338867 40.26074219 C-46.97338867 39.60074219 -46.97338867 38.94074219 -46.97338867 38.26074219 C-39.28836721 38.34542126 -31.60353042 38.44040955 -23.91880035 38.54826927 C-20.34979579 38.59804459 -16.78081817 38.64437485 -13.21166992 38.68261719 C-9.76207554 38.7197089 -6.31271739 38.76613055 -2.86332703 38.81880569 C-0.91820045 38.84613783 1.02705175 38.86400637 2.97229004 38.88168335 C14.1271995 39.06628859 23.75570828 40.53608505 32.26879883 48.30761719 C39.03825509 55.49861468 41.59815628 62.1829071 41.46411133 72.01074219 C41.45275146 73.18709229 41.45275146 73.18709229 41.44116211 74.38720703 C41.11739343 85.91289953 37.3480983 94.731018 29.36645508 102.97558594 C23.73812415 108.21929288 17.60347665 110.31363402 10.02661133 111.26074219 C14.91700084 117.02889392 19.95635683 122.65056042 25.02661133 128.26074219 C26.48509235 129.88560964 27.94342619 131.5106092 29.40161133 133.13574219 C34.1128254 138.37042448 38.87211226 143.56033154 43.63696289 148.74609375 C44.97499804 150.20448624 46.3094714 151.66614412 47.64379883 153.12792969 C49.91286187 155.61245272 52.18671157 158.0922738 54.46655273 160.56689453 C55.5715609 161.76666709 56.67527331 162.96763365 57.77807617 164.16943359 C65.85371959 172.95544438 74.05879048 181.37841176 83.02661133 189.26074219 C99.45107027 177.17970409 108.96929746 151.07448848 112.20214844 131.78173828 C116.46929856 102.79891663 108.76502576 73.71332776 91.77661133 50.01074219 C74.28366238 27.87928164 50.19213317 11.93506269 22.02661133 7.26074219 C19.50210667 7.13346361 17.0050292 7.04963594 14.47973633 7.02246094 C13.75026794 7.01438919 13.02079956 7.00631744 12.26922607 6.9980011 C10.72272073 6.98420294 9.17618547 6.97346179 7.62963867 6.96557617 C6.08234423 6.95417776 4.53508517 6.93392426 2.98803711 6.90405273 C-26.50772824 6.33621643 -52.1453666 17.61951852 -72.97338867 38.26074219 Z " fill="#070707" transform="translate(245.973388671875,134.7392578125)"/>
</svg>
